# Blender v2.90.1 OBJ File: ''
# www.blender.org
o Cube_Cube.001
v -0.982322 -0.050000 0.982322
v -0.982322 -0.032322 1.000000
v -1.000000 -0.032322 0.982322
v -0.982322 0.032322 1.000000
v -0.982322 0.050000 0.982322
v -1.000000 0.032322 0.982322
v -0.982322 -0.050000 -0.982322
v -1.000000 -0.032322 -0.982322
v -0.982322 -0.032322 -1.000000
v -0.982322 0.050000 -0.982322
v -0.982322 0.032322 -1.000000
v -1.000000 0.032322 -0.982322
v 0.982322 -0.050000 0.982322
v 1.000000 -0.032322 0.982322
v 0.982322 -0.032322 1.000000
v 0.982322 0.050000 0.982322
v 0.982322 0.032322 1.000000
v 1.000000 0.032322 0.982322
v 0.982322 -0.050000 -0.982322
v 0.982322 -0.032322 -1.000000
v 1.000000 -0.032322 -0.982322
v 0.982322 0.050000 -0.982322
v 1.000000 0.032322 -0.982322
v 0.982322 0.032322 -1.000000
vt 0.419194 0.752210
vt 0.580806 0.752210
vt 0.580806 0.997790
vt 0.419194 0.997790
vt 0.419194 0.502210
vt 0.580806 0.502210
vt 0.580806 0.747790
vt 0.419194 0.747790
vt 0.627210 0.502210
vt 0.872790 0.502210
vt 0.872790 0.747790
vt 0.627210 0.747790
vt 0.419194 0.002210
vt 0.580806 0.002210
vt 0.580806 0.247790
vt 0.419194 0.247790
vt 0.419194 0.252210
vt 0.580806 0.252210
vt 0.580806 0.497790
vt 0.419194 0.497790
vt 0.127210 0.747790
vt 0.127210 0.750000
vt 0.125000 0.747790
vt 0.625000 0.997790
vt 0.580806 1.000000
vt 0.127210 0.502210
vt 0.125000 0.502210
vt 0.127210 0.500000
vt 0.625000 0.252210
vt 0.580806 0.250000
vt 0.580806 0.250000
vt 0.372790 0.747790
vt 0.375000 0.747790
vt 0.372790 0.750000
vt 0.625000 0.752210
vt 0.580806 0.750000
vt 0.580806 0.750000
vt 0.372790 0.502210
vt 0.372790 0.500000
vt 0.375000 0.502210
vt 0.625000 0.502210
vt 0.580806 0.500000
vt 0.580806 0.500000
vt 0.419194 0.000000
vt 0.580806 0.000000
vt 0.625000 0.002210
vt 0.625000 0.247790
vt 0.625000 0.497790
vn 0.0000 0.0000 1.0000
vn 1.0000 0.0000 0.0000
vn 0.0000 1.0000 0.0000
vn -1.0000 0.0000 0.0000
vn 0.0000 0.0000 -1.0000
vn -0.5774 -0.5774 0.5774
vn -0.5774 0.5774 0.5774
vn -0.5774 -0.5774 -0.5774
vn -0.5774 0.5774 -0.5774
vn 0.5774 -0.5774 0.5774
vn 0.5774 0.5774 0.5774
vn 0.5774 -0.5774 -0.5774
vn 0.5774 0.5774 -0.5774
vn -0.7071 -0.7071 0.0000
vn -0.7071 0.0000 0.7071
vn -0.7071 0.7071 0.0000
vn -0.7071 0.0000 -0.7071
vn 0.0000 -0.7071 -0.7071
vn 0.0000 0.7071 -0.7071
vn 0.7071 0.0000 -0.7071
vn 0.7071 -0.7071 0.0000
vn 0.7071 0.7071 0.0000
vn 0.7071 0.0000 0.7071
vn 0.0000 -0.7071 0.7071
vn 0.0000 0.7071 0.7071
vn 0.0000 -1.0000 0.0000
s off
f 15/1/1 17/2/1 4/3/1 2/4/1
f 21/5/2 23/6/2 18/7/2 14/8/2
f 22/9/3 10/10/3 5/11/3 16/12/3
f 3/13/4 6/14/4 12/15/4 8/16/4
f 9/17/5 11/18/5 24/19/5 20/20/5
f 1/21/6 2/22/6 3/23/6
f 4/3/7 5/24/7 6/25/7
f 7/26/8 8/27/8 9/28/8
f 10/29/9 11/30/9 12/31/9
f 13/32/10 14/33/10 15/34/10
f 16/35/11 17/36/11 18/37/11
f 19/38/12 20/39/12 21/40/12
f 22/41/13 23/42/13 24/43/13
f 7/26/14 1/21/14 3/23/14 8/27/14
f 2/44/15 4/45/15 6/14/15 3/13/15
f 5/46/16 10/47/16 12/15/16 6/14/16
f 11/18/17 9/17/17 8/16/17 12/15/17
f 19/38/18 7/26/18 9/28/18 20/39/18
f 10/29/19 22/48/19 24/19/19 11/18/19
f 23/6/20 21/5/20 20/20/20 24/19/20
f 13/32/21 19/38/21 21/5/21 14/8/21
f 22/9/22 16/12/22 18/7/22 23/6/22
f 17/2/23 15/1/23 14/8/23 18/7/23
f 1/21/24 13/32/24 15/34/24 2/22/24
f 16/35/25 5/24/25 4/3/25 17/2/25
f 7/26/26 19/38/26 13/32/26 1/21/26
